# xmcd
#
# Track frame offsets:
#	150
#	16555
#	32812
#	46167
#	59970
#	77027
#	98707
#	113742
#	133620
#	146057
#	160322
#	176225
#
# Disc length: 2590 seconds
#
# Revision: 3
# Processed by: cddbd v1.5.2PL0 Copyright (c) Steve Scherf et al.
# Submitted via: EZCDAudioConverter 8.0.2.1
#
DISCID=a00a1c0c
DTITLE=COPACABANA - SERTANEJO NOTA 10 [CD 10.015) COPACABANA - 1990/1996
DYEAR=1996
DGENRE=SERTANEJO
TTITLE0=JOÃO MINEIRO and MARCIANO - SE EU NÃO PUDER TE ESQUECER (BY GILMAR SINIS
TTITLE0=TRO)
TTITLE1=BARRERITO - AMAREMOS (BY GILMAR SINISTRO)
TTITLE2=AS MARCIANAS - CHUVAS DE VERÃO (UN CHANT D'AMOUR, UN CHANT DETÉ) (BY G
TTITLE2=ILMAR SINISTRO)
TTITLE3=ALAN and ALADIM - LIGUEI PRA DIZER QUE TE AMO (BY GILMAR SINISTRO)
TTITLE4=AS MINEIRINHAS - CARTAS NA MESA (BY GILMAR SINISTRO)
TTITLE5=CHITÃOZINHO and XORORÓ - FALANDO ÀS PAREDES (BY GILMAR SINISTRO)
TTITLE6=CHITÃOZINHO and XORORÓ - TENHO CIÚME DE TUDO (BY GILMAR SINISTRO)
TTITLE7=BARRERITO - JUVENTUDE QUE PERDI (BY GILMAR SINISTRO)
TTITLE8=AS MINEIRINHAS - COITADA DE MIM (BY GILMAR SINISTRO)
TTITLE9=JOÃO MINEIRO and MARCIANO - AINDA ONTEM CHOREI DE SAUDADE (BY GILMAR SIN
TTITLE9=ISTRO)
TTITLE10=ALAN and ALADIM - INIMIGO DO PEITO (BY GILMAR SINISTRO)
TTITLE11=AS MARCIANAS - NOSSA MELODIA PREFERIDA (BY GILMAR SINISTRO)
EXTD=
EXTT0=
EXTT1=
EXTT2=
EXTT3=
EXTT4=
EXTT5=
EXTT6=
EXTT7=
EXTT8=
EXTT9=
EXTT10=
EXTT11=
PLAYORDER=
